<mxfile host="app.diagrams.net" agent="Mozilla/5.0 (Windows NT 10.0; Win64; x64) AppleWebKit/537.36 (KHTML, like Gecko) Chrome/134.0.0.0 Safari/537.36" version="26.1.0">
  <diagram name="페이지-1" id="txAMY-BJnVg637cSQ8Ka">
    <mxGraphModel dx="2074" dy="2267" grid="1" gridSize="10" guides="1" tooltips="1" connect="1" arrows="1" fold="1" page="1" pageScale="1" pageWidth="827" pageHeight="1169" math="0" shadow="0">
      <root>
        <mxCell id="0" />
        <mxCell id="1" parent="0" />
        <mxCell id="EE5ulmaTO73ELopiwMD7-23" style="edgeStyle=orthogonalEdgeStyle;rounded=0;orthogonalLoop=1;jettySize=auto;html=1;exitX=0.25;exitY=1;exitDx=0;exitDy=0;entryX=0.5;entryY=1;entryDx=0;entryDy=0;" parent="1" source="EE5ulmaTO73ELopiwMD7-1" target="EE5ulmaTO73ELopiwMD7-13" edge="1">
          <mxGeometry relative="1" as="geometry">
            <Array as="points">
              <mxPoint x="293.36689831229614" y="702.4175824175825" />
            </Array>
          </mxGeometry>
        </mxCell>
        <mxCell id="EE5ulmaTO73ELopiwMD7-24" style="edgeStyle=orthogonalEdgeStyle;rounded=0;orthogonalLoop=1;jettySize=auto;html=1;entryX=0.5;entryY=1;entryDx=0;entryDy=0;" parent="1" source="EE5ulmaTO73ELopiwMD7-1" target="EE5ulmaTO73ELopiwMD7-12" edge="1">
          <mxGeometry relative="1" as="geometry">
            <Array as="points">
              <mxPoint x="176.36221812508865" y="702.4175824175825" />
              <mxPoint x="176.36221812508865" y="702.4175824175825" />
            </Array>
          </mxGeometry>
        </mxCell>
        <mxCell id="EE5ulmaTO73ELopiwMD7-1" value="" style="whiteSpace=wrap;html=1;fillColor=none;container=0;" parent="1" vertex="1">
          <mxGeometry x="62.02" y="-40" width="967.98" height="742.42" as="geometry" />
        </mxCell>
        <mxCell id="EE5ulmaTO73ELopiwMD7-2" value="" style="whiteSpace=wrap;html=1;fillColor=none;container=0;" parent="1" vertex="1">
          <mxGeometry x="107.22" y="70" width="260.6" height="416.48" as="geometry" />
        </mxCell>
        <mxCell id="EE5ulmaTO73ELopiwMD7-4" value="clk_divider" style="whiteSpace=wrap;html=1;fillColor=none;container=0;" parent="1" vertex="1">
          <mxGeometry x="141.7926535243228" y="118.87065934065933" width="69.1391292015317" height="57.582417582417584" as="geometry" />
        </mxCell>
        <mxCell id="EE5ulmaTO73ELopiwMD7-17" value="[6:0]msec" style="edgeStyle=orthogonalEdgeStyle;rounded=0;orthogonalLoop=1;jettySize=auto;html=1;exitX=1;exitY=0.5;exitDx=0;exitDy=0;entryX=0;entryY=0.5;entryDx=0;entryDy=0;" parent="1" source="EE5ulmaTO73ELopiwMD7-5" target="EE5ulmaTO73ELopiwMD7-8" edge="1">
          <mxGeometry relative="1" as="geometry" />
        </mxCell>
        <mxCell id="EE5ulmaTO73ELopiwMD7-72" value="tick_msec" style="edgeStyle=orthogonalEdgeStyle;rounded=0;orthogonalLoop=1;jettySize=auto;html=1;exitX=1;exitY=0.75;exitDx=0;exitDy=0;entryX=0;entryY=0.25;entryDx=0;entryDy=0;" parent="1" source="EE5ulmaTO73ELopiwMD7-5" target="EE5ulmaTO73ELopiwMD7-6" edge="1">
          <mxGeometry relative="1" as="geometry" />
        </mxCell>
        <mxCell id="EE5ulmaTO73ELopiwMD7-5" value="" style="whiteSpace=wrap;html=1;fillColor=none;container=0;" parent="1" vertex="1">
          <mxGeometry x="267.0073337115303" y="118.87065934065933" width="69.1391292015317" height="57.582417582417584" as="geometry" />
        </mxCell>
        <mxCell id="EE5ulmaTO73ELopiwMD7-18" value="[6:0]sec" style="edgeStyle=orthogonalEdgeStyle;rounded=0;orthogonalLoop=1;jettySize=auto;html=1;exitX=1;exitY=0.5;exitDx=0;exitDy=0;entryX=0;entryY=0.5;entryDx=0;entryDy=0;" parent="1" source="EE5ulmaTO73ELopiwMD7-6" target="EE5ulmaTO73ELopiwMD7-9" edge="1">
          <mxGeometry relative="1" as="geometry" />
        </mxCell>
        <mxCell id="EE5ulmaTO73ELopiwMD7-73" value="tick_sec" style="edgeStyle=orthogonalEdgeStyle;rounded=0;orthogonalLoop=1;jettySize=auto;html=1;exitX=1;exitY=0.75;exitDx=0;exitDy=0;entryX=0;entryY=0.25;entryDx=0;entryDy=0;" parent="1" source="EE5ulmaTO73ELopiwMD7-6" target="EE5ulmaTO73ELopiwMD7-46" edge="1">
          <mxGeometry relative="1" as="geometry" />
        </mxCell>
        <mxCell id="EE5ulmaTO73ELopiwMD7-6" value="" style="whiteSpace=wrap;html=1;fillColor=none;container=0;" parent="1" vertex="1">
          <mxGeometry x="267.0073337115303" y="205.24428571428572" width="69.1391292015317" height="57.582417582417584" as="geometry" />
        </mxCell>
        <mxCell id="EE5ulmaTO73ELopiwMD7-7" value="" style="whiteSpace=wrap;html=1;fillColor=none;container=0;" parent="1" vertex="1">
          <mxGeometry x="495.32" y="90.08" width="454.68" height="489.92" as="geometry" />
        </mxCell>
        <mxCell id="EE5ulmaTO73ELopiwMD7-8" value="digit splitter" style="whiteSpace=wrap;html=1;fillColor=none;container=0;" parent="1" vertex="1">
          <mxGeometry x="508.6123131470714" y="118.87065934065933" width="69.1391292015317" height="57.582417582417584" as="geometry" />
        </mxCell>
        <mxCell id="EE5ulmaTO73ELopiwMD7-9" value="digit splitter" style="whiteSpace=wrap;html=1;fillColor=none;container=0;" parent="1" vertex="1">
          <mxGeometry x="508.6123131470714" y="205.24428571428572" width="69.1391292015317" height="57.582417582417584" as="geometry" />
        </mxCell>
        <mxCell id="EE5ulmaTO73ELopiwMD7-25" style="edgeStyle=orthogonalEdgeStyle;rounded=0;orthogonalLoop=1;jettySize=auto;html=1;entryX=0.25;entryY=1;entryDx=0;entryDy=0;exitX=0.25;exitY=-0.007;exitDx=0;exitDy=0;exitPerimeter=0;" parent="1" source="EE5ulmaTO73ELopiwMD7-10" target="EE5ulmaTO73ELopiwMD7-2" edge="1">
          <mxGeometry relative="1" as="geometry" />
        </mxCell>
        <mxCell id="EE5ulmaTO73ELopiwMD7-10" value="stopwatch_cu" style="whiteSpace=wrap;html=1;fillColor=none;container=0;" parent="1" vertex="1">
          <mxGeometry x="107.22308892355693" y="515.2747252747253" width="260.6013331442349" height="71.97802197802197" as="geometry" />
        </mxCell>
        <mxCell id="EE5ulmaTO73ELopiwMD7-19" style="edgeStyle=orthogonalEdgeStyle;rounded=0;orthogonalLoop=1;jettySize=auto;html=1;exitX=0.5;exitY=0;exitDx=0;exitDy=0;entryX=0.266;entryY=1;entryDx=0;entryDy=0;entryPerimeter=0;" parent="1" source="EE5ulmaTO73ELopiwMD7-12" target="EE5ulmaTO73ELopiwMD7-10" edge="1">
          <mxGeometry relative="1" as="geometry">
            <Array as="points">
              <mxPoint x="176.36221812508865" y="587.2527472527472" />
            </Array>
          </mxGeometry>
        </mxCell>
        <mxCell id="EE5ulmaTO73ELopiwMD7-12" value="BU" style="whiteSpace=wrap;html=1;fillColor=none;container=0;" parent="1" vertex="1">
          <mxGeometry x="141.7926535243228" y="616.0439560439561" width="69.1391292015317" height="57.582417582417584" as="geometry" />
        </mxCell>
        <mxCell id="EE5ulmaTO73ELopiwMD7-13" value="BU" style="whiteSpace=wrap;html=1;fillColor=none;container=0;" parent="1" vertex="1">
          <mxGeometry x="258.7973337115303" y="616.0439560439561" width="69.1391292015317" height="57.582417582417584" as="geometry" />
        </mxCell>
        <mxCell id="EE5ulmaTO73ELopiwMD7-14" value="4to1mux" style="shape=trapezoid;perimeter=trapezoidPerimeter;whiteSpace=wrap;html=1;fixedSize=1;size=20;rotation=90;" parent="1" vertex="1">
          <mxGeometry x="486.78" y="245.84999999999997" width="322.25" height="64.78" as="geometry" />
        </mxCell>
        <mxCell id="EE5ulmaTO73ELopiwMD7-21" style="edgeStyle=orthogonalEdgeStyle;rounded=0;orthogonalLoop=1;jettySize=auto;html=1;exitX=0.5;exitY=0;exitDx=0;exitDy=0;entryX=0.716;entryY=0.986;entryDx=0;entryDy=0;entryPerimeter=0;" parent="1" source="EE5ulmaTO73ELopiwMD7-13" target="EE5ulmaTO73ELopiwMD7-10" edge="1">
          <mxGeometry relative="1" as="geometry" />
        </mxCell>
        <mxCell id="EE5ulmaTO73ELopiwMD7-26" style="edgeStyle=orthogonalEdgeStyle;rounded=0;orthogonalLoop=1;jettySize=auto;html=1;entryX=0.714;entryY=1.002;entryDx=0;entryDy=0;entryPerimeter=0;exitX=0.695;exitY=-0.002;exitDx=0;exitDy=0;exitPerimeter=0;" parent="1" source="EE5ulmaTO73ELopiwMD7-10" target="EE5ulmaTO73ELopiwMD7-2" edge="1">
          <mxGeometry relative="1" as="geometry" />
        </mxCell>
        <mxCell id="EE5ulmaTO73ELopiwMD7-27" style="edgeStyle=orthogonalEdgeStyle;rounded=0;orthogonalLoop=1;jettySize=auto;html=1;exitX=0.988;exitY=0.298;exitDx=0;exitDy=0;exitPerimeter=0;" parent="1" edge="1">
          <mxGeometry relative="1" as="geometry">
            <mxPoint x="577" y="136.03021978021974" as="sourcePoint" />
            <mxPoint x="615.17" y="136" as="targetPoint" />
            <Array as="points">
              <mxPoint x="615.17" y="136" />
            </Array>
          </mxGeometry>
        </mxCell>
        <mxCell id="EE5ulmaTO73ELopiwMD7-28" style="edgeStyle=orthogonalEdgeStyle;rounded=0;orthogonalLoop=1;jettySize=auto;html=1;entryX=0.088;entryY=1;entryDx=0;entryDy=0;entryPerimeter=0;exitX=0.988;exitY=0.298;exitDx=0;exitDy=0;exitPerimeter=0;" parent="1" edge="1">
          <mxGeometry relative="1" as="geometry">
            <mxPoint x="577.7514423486031" y="162.05747252747253" as="sourcePoint" />
            <mxPoint x="614.9802042263509" y="162.05747252747253" as="targetPoint" />
          </mxGeometry>
        </mxCell>
        <mxCell id="EE5ulmaTO73ELopiwMD7-29" style="edgeStyle=orthogonalEdgeStyle;rounded=0;orthogonalLoop=1;jettySize=auto;html=1;entryX=0.088;entryY=1;entryDx=0;entryDy=0;entryPerimeter=0;exitX=0.988;exitY=0.298;exitDx=0;exitDy=0;exitPerimeter=0;" parent="1" edge="1">
          <mxGeometry relative="1" as="geometry">
            <mxPoint x="577.7514423486031" y="219.48153846153846" as="sourcePoint" />
            <mxPoint x="614.9802042263509" y="219.48153846153846" as="targetPoint" />
          </mxGeometry>
        </mxCell>
        <mxCell id="EE5ulmaTO73ELopiwMD7-30" style="edgeStyle=orthogonalEdgeStyle;rounded=0;orthogonalLoop=1;jettySize=auto;html=1;entryX=0.088;entryY=1;entryDx=0;entryDy=0;entryPerimeter=0;exitX=0.988;exitY=0.298;exitDx=0;exitDy=0;exitPerimeter=0;" parent="1" edge="1">
          <mxGeometry relative="1" as="geometry">
            <mxPoint x="577.7514423486031" y="248.43109890109886" as="sourcePoint" />
            <mxPoint x="614.9802042263509" y="248.43109890109886" as="targetPoint" />
          </mxGeometry>
        </mxCell>
        <mxCell id="EE5ulmaTO73ELopiwMD7-34" value="top_stopwatch" style="text;html=1;align=center;verticalAlign=middle;whiteSpace=wrap;rounded=0;" parent="1" vertex="1">
          <mxGeometry x="58.02793929939014" y="236" width="119.6638774641895" height="43.18681318681319" as="geometry" />
        </mxCell>
        <mxCell id="EE5ulmaTO73ELopiwMD7-35" value="fnd_controller" style="text;html=1;align=center;verticalAlign=middle;whiteSpace=wrap;rounded=0;" parent="1" vertex="1">
          <mxGeometry x="489.9979322081975" y="80.00252747252748" width="119.6638774641895" height="43.18681318681319" as="geometry" />
        </mxCell>
        <mxCell id="EE5ulmaTO73ELopiwMD7-36" style="edgeStyle=orthogonalEdgeStyle;rounded=0;orthogonalLoop=1;jettySize=auto;html=1;entryX=0.25;entryY=1;entryDx=0;entryDy=0;exitX=0.25;exitY=-0.007;exitDx=0;exitDy=0;exitPerimeter=0;" parent="1" edge="1">
          <mxGeometry relative="1" as="geometry">
            <mxPoint x="176.2558502340094" y="731.2087912087911" as="sourcePoint" />
            <mxPoint x="176.2558502340094" y="702.4175824175825" as="targetPoint" />
          </mxGeometry>
        </mxCell>
        <mxCell id="EE5ulmaTO73ELopiwMD7-37" style="edgeStyle=orthogonalEdgeStyle;rounded=0;orthogonalLoop=1;jettySize=auto;html=1;entryX=0.25;entryY=1;entryDx=0;entryDy=0;exitX=0.25;exitY=-0.007;exitDx=0;exitDy=0;exitPerimeter=0;" parent="1" edge="1">
          <mxGeometry relative="1" as="geometry">
            <mxPoint x="293.26053042121686" y="731.2087912087911" as="sourcePoint" />
            <mxPoint x="293.26053042121686" y="702.4175824175825" as="targetPoint" />
          </mxGeometry>
        </mxCell>
        <mxCell id="EE5ulmaTO73ELopiwMD7-38" value="clk" style="edgeStyle=orthogonalEdgeStyle;rounded=0;orthogonalLoop=1;jettySize=auto;html=1;exitX=0.25;exitY=-0.007;exitDx=0;exitDy=0;exitPerimeter=0;" parent="1" edge="1">
          <mxGeometry relative="1" as="geometry">
            <mxPoint x="30" y="-0.0006593406593253803" as="sourcePoint" />
            <mxPoint x="62.016735214863125" y="-0.0006593406593253803" as="targetPoint" />
          </mxGeometry>
        </mxCell>
        <mxCell id="EE5ulmaTO73ELopiwMD7-39" value="reset" style="edgeStyle=orthogonalEdgeStyle;rounded=0;orthogonalLoop=1;jettySize=auto;html=1;exitX=0.25;exitY=-0.007;exitDx=0;exitDy=0;exitPerimeter=0;" parent="1" edge="1">
          <mxGeometry relative="1" as="geometry">
            <mxPoint x="30" y="24.399890109890094" as="sourcePoint" />
            <mxPoint x="62.016735214863125" y="24.399890109890094" as="targetPoint" />
          </mxGeometry>
        </mxCell>
        <mxCell id="EE5ulmaTO73ELopiwMD7-40" value="btn_run" style="text;html=1;align=center;verticalAlign=middle;whiteSpace=wrap;rounded=0;" parent="1" vertex="1">
          <mxGeometry x="116.53027939299389" y="716.8131868131868" width="119.6638774641895" height="43.18681318681319" as="geometry" />
        </mxCell>
        <mxCell id="EE5ulmaTO73ELopiwMD7-41" value="btn_clear" style="text;html=1;align=center;verticalAlign=middle;whiteSpace=wrap;rounded=0;" parent="1" vertex="1">
          <mxGeometry x="233.5349595802014" y="716.8131868131868" width="119.6638774641895" height="43.18681318681319" as="geometry" />
        </mxCell>
        <mxCell id="EE5ulmaTO73ELopiwMD7-44" value="w_digitx" style="edgeStyle=orthogonalEdgeStyle;rounded=0;orthogonalLoop=1;jettySize=auto;html=1;entryX=1;entryY=0.344;entryDx=0;entryDy=0;entryPerimeter=0;exitX=0.374;exitY=-0.002;exitDx=0;exitDy=0;exitPerimeter=0;" parent="1" edge="1">
          <mxGeometry relative="1" as="geometry">
            <mxPoint x="679.9974088781735" y="279.18639560439567" as="sourcePoint" />
            <mxPoint x="755.0000680754501" y="279.25549450549454" as="targetPoint" />
            <Array as="points">
              <mxPoint x="728.4080953056304" y="279.25549450549454" />
            </Array>
          </mxGeometry>
        </mxCell>
        <mxCell id="EE5ulmaTO73ELopiwMD7-45" value="[6:0]min" style="edgeStyle=orthogonalEdgeStyle;rounded=0;orthogonalLoop=1;jettySize=auto;html=1;exitX=1;exitY=0.5;exitDx=0;exitDy=0;entryX=0;entryY=0.5;entryDx=0;entryDy=0;" parent="1" source="EE5ulmaTO73ELopiwMD7-46" target="EE5ulmaTO73ELopiwMD7-49" edge="1">
          <mxGeometry relative="1" as="geometry" />
        </mxCell>
        <mxCell id="EE5ulmaTO73ELopiwMD7-74" value="tick_min" style="edgeStyle=orthogonalEdgeStyle;rounded=0;orthogonalLoop=1;jettySize=auto;html=1;exitX=1;exitY=0.75;exitDx=0;exitDy=0;entryX=0;entryY=0.25;entryDx=0;entryDy=0;" parent="1" source="EE5ulmaTO73ELopiwMD7-46" target="EE5ulmaTO73ELopiwMD7-48" edge="1">
          <mxGeometry relative="1" as="geometry" />
        </mxCell>
        <mxCell id="EE5ulmaTO73ELopiwMD7-46" value="" style="whiteSpace=wrap;html=1;fillColor=none;container=0;" parent="1" vertex="1">
          <mxGeometry x="267.0073337115303" y="290.00065934065935" width="69.1391292015317" height="57.582417582417584" as="geometry" />
        </mxCell>
        <mxCell id="EE5ulmaTO73ELopiwMD7-47" value="[4:0]hour" style="edgeStyle=orthogonalEdgeStyle;rounded=0;orthogonalLoop=1;jettySize=auto;html=1;exitX=1;exitY=0.5;exitDx=0;exitDy=0;entryX=0;entryY=0.5;entryDx=0;entryDy=0;" parent="1" source="EE5ulmaTO73ELopiwMD7-48" target="EE5ulmaTO73ELopiwMD7-50" edge="1">
          <mxGeometry relative="1" as="geometry" />
        </mxCell>
        <mxCell id="EE5ulmaTO73ELopiwMD7-48" value="" style="whiteSpace=wrap;html=1;fillColor=none;container=0;" parent="1" vertex="1">
          <mxGeometry x="267.0073337115303" y="376.37428571428575" width="69.1391292015317" height="57.582417582417584" as="geometry" />
        </mxCell>
        <mxCell id="EE5ulmaTO73ELopiwMD7-49" value="digit splitter" style="whiteSpace=wrap;html=1;fillColor=none;container=0;" parent="1" vertex="1">
          <mxGeometry x="508.6123131470714" y="290.00065934065935" width="69.1391292015317" height="57.582417582417584" as="geometry" />
        </mxCell>
        <mxCell id="EE5ulmaTO73ELopiwMD7-50" value="digit splitter" style="whiteSpace=wrap;html=1;fillColor=none;container=0;" parent="1" vertex="1">
          <mxGeometry x="508.6123131470714" y="376.37428571428575" width="69.1391292015317" height="57.582417582417584" as="geometry" />
        </mxCell>
        <mxCell id="EE5ulmaTO73ELopiwMD7-51" style="edgeStyle=orthogonalEdgeStyle;rounded=0;orthogonalLoop=1;jettySize=auto;html=1;entryX=0.088;entryY=1;entryDx=0;entryDy=0;entryPerimeter=0;exitX=0.988;exitY=0.298;exitDx=0;exitDy=0;exitPerimeter=0;" parent="1" edge="1">
          <mxGeometry relative="1" as="geometry">
            <mxPoint x="577.7514423486031" y="304.19153846153847" as="sourcePoint" />
            <mxPoint x="614.9802042263509" y="304.19153846153847" as="targetPoint" />
          </mxGeometry>
        </mxCell>
        <mxCell id="EE5ulmaTO73ELopiwMD7-52" style="edgeStyle=orthogonalEdgeStyle;rounded=0;orthogonalLoop=1;jettySize=auto;html=1;entryX=0.088;entryY=1;entryDx=0;entryDy=0;entryPerimeter=0;exitX=0.988;exitY=0.298;exitDx=0;exitDy=0;exitPerimeter=0;" parent="1" edge="1">
          <mxGeometry relative="1" as="geometry">
            <mxPoint x="577.7514423486031" y="333.1410989010988" as="sourcePoint" />
            <mxPoint x="614.9802042263509" y="333.1410989010988" as="targetPoint" />
          </mxGeometry>
        </mxCell>
        <mxCell id="EE5ulmaTO73ELopiwMD7-53" style="edgeStyle=orthogonalEdgeStyle;rounded=0;orthogonalLoop=1;jettySize=auto;html=1;entryX=0.088;entryY=1;entryDx=0;entryDy=0;entryPerimeter=0;exitX=0.988;exitY=0.298;exitDx=0;exitDy=0;exitPerimeter=0;" parent="1" edge="1">
          <mxGeometry relative="1" as="geometry">
            <mxPoint x="577.7514423486031" y="390.5615384615385" as="sourcePoint" />
            <mxPoint x="614.9802042263509" y="390.5615384615385" as="targetPoint" />
          </mxGeometry>
        </mxCell>
        <mxCell id="EE5ulmaTO73ELopiwMD7-54" style="edgeStyle=orthogonalEdgeStyle;rounded=0;orthogonalLoop=1;jettySize=auto;html=1;entryX=0.088;entryY=1;entryDx=0;entryDy=0;entryPerimeter=0;exitX=0.988;exitY=0.298;exitDx=0;exitDy=0;exitPerimeter=0;" parent="1" edge="1">
          <mxGeometry relative="1" as="geometry">
            <mxPoint x="577.7514423486031" y="419.5110989010989" as="sourcePoint" />
            <mxPoint x="614.9802042263509" y="419.5110989010989" as="targetPoint" />
          </mxGeometry>
        </mxCell>
        <mxCell id="EE5ulmaTO73ELopiwMD7-58" value="" style="endArrow=classic;html=1;rounded=0;entryX=0.5;entryY=0;entryDx=0;entryDy=0;" parent="1" target="EE5ulmaTO73ELopiwMD7-7" edge="1">
          <mxGeometry width="50" height="50" relative="1" as="geometry">
            <mxPoint x="62.01999999999998" as="sourcePoint" />
            <mxPoint x="723" y="90" as="targetPoint" />
            <Array as="points">
              <mxPoint x="723" />
            </Array>
          </mxGeometry>
        </mxCell>
        <mxCell id="EE5ulmaTO73ELopiwMD7-59" value="" style="endArrow=classic;html=1;rounded=0;" parent="1" edge="1">
          <mxGeometry width="50" height="50" relative="1" as="geometry">
            <mxPoint x="62.01999999999998" y="24.87" as="sourcePoint" />
            <mxPoint x="680" y="90" as="targetPoint" />
            <Array as="points">
              <mxPoint x="680" y="25" />
            </Array>
          </mxGeometry>
        </mxCell>
        <mxCell id="EE5ulmaTO73ELopiwMD7-62" value="" style="edgeStyle=none;orthogonalLoop=1;jettySize=auto;html=1;rounded=0;entryX=0.197;entryY=0.005;entryDx=0;entryDy=0;entryPerimeter=0;" parent="1" target="EE5ulmaTO73ELopiwMD7-2" edge="1">
          <mxGeometry width="100" relative="1" as="geometry">
            <mxPoint x="158.8" y="25" as="sourcePoint" />
            <mxPoint x="258.8" y="25" as="targetPoint" />
            <Array as="points" />
          </mxGeometry>
        </mxCell>
        <mxCell id="EE5ulmaTO73ELopiwMD7-63" value="" style="edgeStyle=none;orthogonalLoop=1;jettySize=auto;html=1;rounded=0;entryX=0.197;entryY=0.005;entryDx=0;entryDy=0;entryPerimeter=0;targetPerimeterSpacing=0;" parent="1" edge="1">
          <mxGeometry width="100" relative="1" as="geometry">
            <mxPoint x="177" y="1" as="sourcePoint" />
            <mxPoint x="177" y="72" as="targetPoint" />
            <Array as="points" />
          </mxGeometry>
        </mxCell>
        <mxCell id="EE5ulmaTO73ELopiwMD7-64" value="" style="edgeStyle=none;orthogonalLoop=1;jettySize=auto;html=1;rounded=0;entryX=0.197;entryY=0.005;entryDx=0;entryDy=0;entryPerimeter=0;" parent="1" edge="1">
          <mxGeometry width="100" relative="1" as="geometry">
            <mxPoint x="158" y="70.87" as="sourcePoint" />
            <mxPoint x="158.2" y="117.87" as="targetPoint" />
            <Array as="points" />
          </mxGeometry>
        </mxCell>
        <mxCell id="EE5ulmaTO73ELopiwMD7-65" value="" style="edgeStyle=none;orthogonalLoop=1;jettySize=auto;html=1;rounded=0;entryX=0.197;entryY=0.005;entryDx=0;entryDy=0;entryPerimeter=0;" parent="1" edge="1">
          <mxGeometry width="100" relative="1" as="geometry">
            <mxPoint x="177.14000000000001" y="72" as="sourcePoint" />
            <mxPoint x="177.34" y="119" as="targetPoint" />
            <Array as="points" />
          </mxGeometry>
        </mxCell>
        <mxCell id="EE5ulmaTO73ELopiwMD7-66" value="" style="triangle;whiteSpace=wrap;html=1;rotation=90;" parent="1" vertex="1">
          <mxGeometry x="153" y="119.19" width="10" height="10" as="geometry" />
        </mxCell>
        <mxCell id="EE5ulmaTO73ELopiwMD7-67" value="" style="triangle;whiteSpace=wrap;html=1;rotation=90;" parent="1" vertex="1">
          <mxGeometry x="153" y="70" width="10" height="10" as="geometry" />
        </mxCell>
        <mxCell id="EE5ulmaTO73ELopiwMD7-69" value="bcdtofnd_font" style="whiteSpace=wrap;html=1;fillColor=none;container=0;" parent="1" vertex="1">
          <mxGeometry x="755" y="245.85" width="80" height="70" as="geometry" />
        </mxCell>
        <mxCell id="EE5ulmaTO73ELopiwMD7-70" value="fnd_font" style="edgeStyle=orthogonalEdgeStyle;rounded=0;orthogonalLoop=1;jettySize=auto;html=1;entryX=1;entryY=0.344;entryDx=0;entryDy=0;entryPerimeter=0;exitX=0.374;exitY=-0.002;exitDx=0;exitDy=0;exitPerimeter=0;" parent="1" edge="1">
          <mxGeometry relative="1" as="geometry">
            <mxPoint x="834.9974088781735" y="277.93639560439567" as="sourcePoint" />
            <mxPoint x="950" y="278.00549450549454" as="targetPoint" />
            <Array as="points">
              <mxPoint x="883.4080953056304" y="278.00549450549454" />
            </Array>
          </mxGeometry>
        </mxCell>
      </root>
    </mxGraphModel>
  </diagram>
</mxfile>
